<?xml version="1.0" encoding="UTF-8" standalone="no"?>
<!-- Created with Inkscape (http://www.inkscape.org/) -->

<svg
   width="1023.9999"
   height="1023.9999"
   viewBox="0 0 270.93331 270.93331"
   version="1.1"
   id="svg1"
   xml:space="preserve"
   inkscape:export-filename="milknosugar.svg"
   inkscape:export-xdpi="96"
   inkscape:export-ydpi="96"
   xmlns:inkscape="http://www.inkscape.org/namespaces/inkscape"
   xmlns:sodipodi="http://sodipodi.sourceforge.net/DTD/sodipodi-0.dtd"
   xmlns="http://www.w3.org/2000/svg"
   xmlns:svg="http://www.w3.org/2000/svg"><sodipodi:namedview
     id="namedview1"
     pagecolor="#505050"
     bordercolor="#ffffff"
     borderopacity="1"
     inkscape:showpageshadow="0"
     inkscape:pageopacity="0"
     inkscape:pagecheckerboard="1"
     inkscape:deskcolor="#505050"
     inkscape:document-units="mm" /><defs
     id="defs1" /><g
     inkscape:label="Layer 1"
     inkscape:groupmode="layer"
     id="layer1"><path
       style="fill:#000000;stroke-width:0.560388"
       d="M 113.27219,269.73788 C 57.600333,259.94156 13.906614,217.2844 2.5468035,161.63929 -7.8698665,110.61397 14.294264,55.286063 57.557752,24.31649 71.952693,14.012069 93.488691,4.9798629 111.72184,1.6000519 c 11.59757,-2.14979991 36.54731,-2.12811891 47.95666,0.04167 55.27706,10.5123991 97.99486,52.7520321 109.24449,108.0216281 2.63556,12.94859 2.68913,39.18371 0.10505,51.45618 -8.83767,41.97235 -34.88975,76.72625 -71.36143,95.19727 -21.1862,10.72973 -34.42955,14.02899 -58.33957,14.53394 -12.16912,0.257 -20.22555,-0.0871 -26.05485,-1.11286 z m 52.5674,-9.14655 c 50.11705,-13.06766 84.96605,-49.67701 95.90764,-100.7523 2.54566,-11.88311 2.55142,-36.51475 0.0114,-48.61641 C 253.19679,70.431222 228.28523,37.824972 192.22943,20.217285 172.83204,10.744654 157.27231,7.1528249 135.74819,7.1790759 99.452827,7.2233459 67.700082,20.850256 42.680972,47.119533 25.667018,64.983646 15.077804,85.515807 9.6205735,111.22262 c -2.52957,11.91578 -2.54327,36.60057 -0.0269,48.53686 10.3841005,49.25738 44.1753555,86.01054 91.5726365,99.59923 13.62327,3.90576 19.90421,4.59546 38.16077,4.19036 13.48995,-0.29934 18.43115,-0.85057 26.51255,-2.95774 z m 15.25625,-32.91536 c -11.23554,-2.37684 -14.34773,-3.39401 -27.2613,-8.91 -30.92014,-13.20742 -48.30375,-29.84319 -41.44678,-39.66378 2.12657,-3.04568 8.36405,-5.09052 10.38798,-3.40551 1.95876,1.63075 1.04439,2.96814 -3.26394,4.77396 -6.59914,2.766 -3.53785,8.88955 9.27335,18.54967 21.40415,16.13952 60.70139,29.05997 74.11662,24.36864 3.64392,-1.27428 4.18658,-3.80916 1.75788,-8.2114 -1.41584,-2.56631 -0.58125,-5.20065 1.64762,-5.20065 1.69648,0 5.03133,6.71261 5.03526,10.13531 0.0101,8.79669 -11.18497,11.59622 -30.24669,7.56376 z m -9.64506,-19.72949 c -21.72738,-4.72629 -39.91613,-22.21894 -44.09384,-42.40633 -1.58453,-7.65674 -0.70389,-19.71292 2.08822,-28.58789 2.82584,-8.98225 5.24846,-10.45341 17.11244,-10.39174 28.6904,0.14915 76.55395,23.66884 84.66087,41.60154 l 2.00889,4.44374 -2.36095,4.74226 c -2.01363,4.04462 -2.13677,4.8697 -0.83705,5.60835 9.04278,5.13921 12.21725,9.46072 10.20462,13.89191 -2.03248,4.47489 -6.64295,5.85195 -19.59257,5.85195 -9.91422,0 -12.72618,0.39705 -19.01401,2.68472 -8.10465,2.94869 -22.7009,4.18767 -30.17662,2.56149 z m 28.23126,-7.42904 c 7.40163,-2.72849 14.54985,-7.85135 19.6163,-14.05828 l 3.49902,-4.28664 -7.79246,-0.091 c -22.51118,-0.26295 -59.14388,-15.64531 -76.25884,-32.02171 -5.58387,-5.34291 -5.92861,-5.51546 -6.52887,-3.26775 -1.33731,5.00761 -0.6185,15.56321 1.4911,21.89677 5.51582,16.55989 18.40636,28.42186 36.40519,33.50032 7.68054,2.16709 21.23355,1.40085 29.56856,-1.67171 z m -28.01236,-8.90598 c -5.61204,-1.9384 -13.48681,-8.40525 -15.87379,-13.03575 -2.60994,-5.06297 -0.97791,-4.45306 5.48407,2.04946 8.49259,8.54587 17.46179,11.38289 27.16302,8.59183 2.1075,-0.60633 4.17263,-0.6355 5.17441,-0.0731 1.38601,0.77812 1.14291,1.14973 -1.44161,2.20372 -5.03596,2.0537 -14.95461,2.18131 -20.5061,0.26383 z m 61.88863,4.87743 c 1.46195,-0.55758 2.65808,-1.49022 2.65808,-2.07251 0,-1.27257 -8.12298,-7.32852 -9.74079,-7.26208 -0.6269,0.0258 -3.15989,2.36467 -5.62886,5.19759 l -4.48904,5.15079 h 7.27127 c 3.99919,0 8.46739,-0.45621 9.92934,-1.01379 z m -8.67254,-20.85268 c 3.3064,-1.77511 2.43704,-5.77581 -2.39969,-11.04312 -14.63598,-15.93898 -53.09995,-32.55198 -75.41566,-32.5728 -9.71903,-0.009 -12.89098,1.67994 -11.27216,6.00226 4.3147,11.52037 33.99337,28.94948 61.55877,36.15102 9.95493,2.60076 24.01717,3.34791 27.52874,1.46264 z M 65.116525,136.12495 c -10.578086,-1.22588 -16.461332,-5.25085 -16.461332,-11.26188 0,-3.01868 4.649478,-9.48237 6.820881,-9.48237 2.638473,0 2.771129,2.84214 0.289801,6.20891 -4.668658,6.33462 1.527774,9.49193 18.795561,9.57703 19.044191,0.0939 40.754004,-4.97676 58.677054,-13.70483 14.90146,-7.25661 19.65256,-13.61189 12.82418,-17.15413 -3.27897,-1.700971 -4.10478,-4.359668 -1.64791,-5.305431 1.95003,-0.750653 7.53654,2.226885 8.87094,4.728094 2.29308,4.298187 1.26508,8.229707 -3.36687,12.876257 -14.50237,14.54812 -58.033157,26.62058 -84.802305,23.51835 z m 9.704672,-19.23189 c -5.787788,-1.56344 -12.42399,-4.65193 -17.106052,-7.96117 -1.836574,-1.29806 -6.551036,-2.53929 -13.200284,-3.47535 -15.245015,-2.14615 -22.196347,-6.671943 -20.155437,-13.122562 0.74458,-2.353377 7.029743,-6.678492 11.178365,-7.692361 2.557899,-0.625116 2.855757,-1.076967 2.268767,-3.441709 -0.371635,-1.497166 -0.930667,-3.98899 -1.242292,-5.537385 -2.102913,-10.448882 22.267866,-24.305009 54.577168,-31.030121 12.878988,-2.680734 35.194918,-3.311291 42.210648,-1.1927 7.70062,2.325408 9.46398,4.732856 10.77726,14.713717 4.29731,32.659377 -21.61651,60.497401 -56.096657,60.262061 -4.27453,-0.0292 -10.219699,-0.71427 -13.211486,-1.52242 z m 32.108063,-6.64952 c 18.59357,-7.12527 30.58773,-22.279941 32.50706,-41.072816 l 0.69592,-6.813976 -6.71273,4.515574 c -11.87872,7.99068 -30.53216,14.646535 -50.049951,17.858644 -10.520011,1.731313 -32.193215,2.058093 -36.1599,0.545204 -2.507972,-0.956536 -2.573634,-0.88437 -1.580216,1.736762 2.798295,7.383292 12.134062,16.759978 21.398613,21.492418 10.420208,5.32275 28.492747,6.11004 39.901204,1.73819 z m -29.259074,-5.04705 c 0,-1.83646 8.091,-8.569554 12.953122,-10.779218 6.599489,-2.999231 16.595922,-3.219613 23.574682,-0.519731 8.63869,3.342066 5.64367,5.112121 -3.79157,2.240815 -2.79778,-0.851419 -6.32707,-1.548028 -7.84285,-1.548028 -5.498812,0 -13.223969,3.137201 -17.906364,7.271812 -4.483207,3.95873 -6.98702,5.15359 -6.98702,3.33435 z m -30.73923,-6.707968 c -1.147026,-1.286402 -3.112517,-4.062141 -4.367757,-6.168306 -2.188861,-3.672687 -2.418346,-3.782623 -5.607941,-2.686603 -4.105671,1.410808 -7.98881,3.860465 -7.98881,5.039693 0,1.967117 11.326664,5.773014 18.05594,6.067014 1.93851,0.0847 1.935963,0.022 -0.09143,-2.251798 z M 94.250181,77.153549 C 121.65632,70.018532 142.0207,58.399821 138.11837,52.124957 133.93194,45.393267 104.9864,45.909271 78.706435,53.18408 61.20221,58.029592 43.164582,67.933928 41.782267,73.458883 c -1.476144,5.899977 4.731187,7.68254 25.007296,7.181358 13.089719,-0.32355 17.425168,-0.874025 27.460618,-3.486692 z"
       id="path1" /></g></svg>
